<svg xmlns="http://www.w3.org/2000/svg" viewBox="-30.0 -30.0 1395.0 525.0" width="1395.0" height="525.0">
  <defs>
    <style>
      @import url("https://fonts.googleapis.com/css2?family=Inter:wght@400;500;600;700&amp;display=swap");
      text { font-family: "Inter", -apple-system, BlinkMacSystemFont, "Segoe UI", Roboto, sans-serif; }
    </style>
    <marker id="arrowhead" markerWidth="10" markerHeight="7" refX="9" refY="3.5" orient="auto">
      <polygon points="0 0, 10 3.5, 0 7" fill="#2563EB" />
    </marker>
    <marker id="arrowhead-hero" markerWidth="10" markerHeight="7" refX="9" refY="3.5" orient="auto">
      <polygon points="0 0, 10 3.5, 0 7" fill="#D93829" />
    </marker>
    <marker id="arrowhead-danger" markerWidth="10" markerHeight="7" refX="9" refY="3.5" orient="auto">
      <polygon points="0 0, 10 3.5, 0 7" fill="#DC2626" />
    </marker>
  </defs>
  <rect x="-30.0" y="-30.0" width="1395.0" height="525.0" fill="#F8FAFC" />
  <rect x="10.0" y="10.0" width="1315.0" height="445.0" rx="0.0" fill="transparent" stroke="#CBD5E1" stroke-width="1.5" />
  <text x="30.0" y="46.0" fill="#64748B" font-size="11px" font-weight="400">DIAGRAM DESIGN ARCHETYPE · STATE MACHINE</text>
  <rect x="90.0" y="180.0" width="220.0" height="90.0" rx="6.0" fill="#FFFFFF" stroke="#64748B" stroke-width="1.5" />
  <text x="110.0" y="214.0" fill="#0F172A" font-size="14px" font-weight="600">INIT</text>
  <text x="110.0" y="239.0" fill="#64748B" font-size="11px" font-weight="400">Transacción Creada</text>
  <rect x="390.0" y="180.0" width="220.0" height="90.0" rx="6.0" fill="#FFFFFF" stroke="#64748B" stroke-width="1.5" />
  <text x="410.0" y="214.0" fill="#0F172A" font-size="14px" font-weight="600">AUTHORIZED</text>
  <text x="410.0" y="239.0" fill="#64748B" font-size="11px" font-weight="400">Fondos Retenidos</text>
  <rect x="730.0" y="180.0" width="220.0" height="90.0" rx="6.0" fill="#FFF5F2" stroke="#D93829" stroke-width="2.0" />
  <text x="750.0" y="214.0" fill="#0F172A" font-size="14px" font-weight="600">CAPTURED</text>
  <text x="750.0" y="239.0" fill="#64748B" font-size="11px" font-weight="400">Liquidación Exitosa</text>
  <rect x="1070.0" y="180.0" width="220.0" height="90.0" rx="6.0" fill="#FFFFFF" stroke="#64748B" stroke-width="1.5" />
  <text x="1090.0" y="214.0" fill="#0F172A" font-size="14px" font-weight="600">SETTLED</text>
  <text x="1090.0" y="239.0" fill="#64748B" font-size="11px" font-weight="400">Balance Confirmado</text>
  <line x1="310.0" y1="225.0" x2="390.0" y2="225.0" stroke="#16A34A" stroke-width="1.5" marker-end="url(#arrowhead)" />
  <text x="320.0" y="215.0" fill="#16A34A" font-size="10px" font-weight="400">auth()</text>
  <line x1="610.0" y1="225.0" x2="730.0" y2="225.0" stroke="#16A34A" stroke-width="2.0" marker-end="url(#arrowhead)" />
  <text x="635.0" y="215.0" fill="#D93829" font-size="10px" font-weight="400">capture()</text>
  <line x1="950.0" y1="225.0" x2="1070.0" y2="225.0" stroke="#16A34A" stroke-width="1.5" marker-end="url(#arrowhead)" />
  <text x="980.0" y="215.0" fill="#16A34A" font-size="10px" font-weight="400">settle()</text>
  <rect x="560.0" y="340.0" width="220.0" height="80.0" rx="6.0" fill="#FEF2F2" stroke="#FCA5A5" stroke-width="1.5" />
  <text x="580.0" y="371.0" fill="#991B1B" font-size="13px" font-weight="400">FAILED / VOIDED</text>
  <text x="580.0" y="393.0" fill="#7F1D1D" font-size="11px" font-weight="400">Reintento o Reversa</text>
  <line x1="500.0" y1="270.0" x2="560.0" y2="370.0" stroke="#DC2626" stroke-width="1.2" stroke-dasharray="6,6" marker-end="url(#arrowhead-danger)" />
  <text x="470.0" y="330.0" fill="#DC2626" font-size="10px" font-weight="400">declined</text>
</svg>