<svg xmlns="http://www.w3.org/2000/svg" viewBox="-30.0 -30.0 1605.0 565.0" width="1605.0" height="565.0">
  <defs>
    <style>
      @import url("https://fonts.googleapis.com/css2?family=Inter:wght@400;500;600;700&amp;display=swap");
      text { font-family: "Inter", -apple-system, BlinkMacSystemFont, "Segoe UI", Roboto, sans-serif; }
    </style>
    <marker id="arrowhead" markerWidth="10" markerHeight="7" refX="9" refY="3.5" orient="auto">
      <polygon points="0 0, 10 3.5, 0 7" fill="#2563EB" />
    </marker>
    <marker id="arrowhead-hero" markerWidth="10" markerHeight="7" refX="9" refY="3.5" orient="auto">
      <polygon points="0 0, 10 3.5, 0 7" fill="#D93829" />
    </marker>
    <marker id="arrowhead-danger" markerWidth="10" markerHeight="7" refX="9" refY="3.5" orient="auto">
      <polygon points="0 0, 10 3.5, 0 7" fill="#DC2626" />
    </marker>
  </defs>
  <rect x="-30.0" y="-30.0" width="1605.0" height="565.0" fill="#F8FAFC" />
  <rect x="10.0" y="10.0" width="1525.0" height="485.0" rx="0.0" fill="transparent" stroke="#CBD5E1" stroke-width="1.5" />
  <text x="30.0" y="46.0" fill="#64748B" font-size="11px" font-weight="400">DIAGRAM DESIGN ARCHETYPE · GANTT</text>
  <rect x="250.0" y="40.0" width="416.7" height="35.0" rx="6.0" fill="#F1F5F9" stroke="#CBD5E1" stroke-width="1.0" />
  <text x="270.0" y="63.0" fill="#475569" font-size="11px" font-weight="400">APRIL (W1-W4)</text>
  <line x1="250.0" y1="75.0" x2="250.0" y2="460.0" stroke="#E2E8F0" stroke-width="1.0" stroke-dasharray="6,6" />
  <rect x="666.7" y="40.0" width="416.7" height="35.0" rx="6.0" fill="#F1F5F9" stroke="#CBD5E1" stroke-width="1.0" />
  <text x="686.7" y="63.0" fill="#475569" font-size="11px" font-weight="400">MAY (W5-W8)</text>
  <line x1="666.7" y1="75.0" x2="666.7" y2="460.0" stroke="#E2E8F0" stroke-width="1.0" stroke-dasharray="6,6" />
  <rect x="1083.3" y="40.0" width="416.7" height="35.0" rx="6.0" fill="#F1F5F9" stroke="#CBD5E1" stroke-width="1.0" />
  <text x="1103.3" y="63.0" fill="#475569" font-size="11px" font-weight="400">JUNE (W9-W12)</text>
  <line x1="1083.3" y1="75.0" x2="1083.3" y2="460.0" stroke="#E2E8F0" stroke-width="1.0" stroke-dasharray="6,6" />
  <text x="50.0" y="110.0" fill="#0F172A" font-size="12px" font-weight="400">Discovery &amp; Spec</text>
  <rect x="250.0" y="90.0" width="500.0" height="28.0" rx="6.0" fill="#EFF6FF" stroke="#2563EB" stroke-width="1.5" />
  <text x="260.0" y="106.0" fill="#2563EB" font-size="10px" font-weight="400">4 Semanas</text>
  <text x="50.0" y="205.0" fill="#0F172A" font-size="12px" font-weight="400">Core Engine Build</text>
  <rect x="583.3" y="185.0" width="500.0" height="28.0" rx="6.0" fill="#FFF5F2" stroke="#D93829" stroke-width="1.5" />
  <text x="593.3" y="201.0" fill="#D93829" font-size="10px" font-weight="400">4 Semanas</text>
  <text x="50.0" y="300.0" fill="#0F172A" font-size="12px" font-weight="400">Regression &amp; CI</text>
  <rect x="1000.0" y="280.0" width="333.3" height="28.0" rx="6.0" fill="#EFF6FF" stroke="#2563EB" stroke-width="1.5" />
  <text x="1010.0" y="296.0" fill="#2563EB" font-size="10px" font-weight="400">3 Semanas</text>
  <text x="50.0" y="395.0" fill="#0F172A" font-size="12px" font-weight="400">General Availability (GA)</text>
  <rect x="1250.0" y="375.0" width="250.0" height="28.0" rx="6.0" fill="#FFF5F2" stroke="#D93829" stroke-width="1.5" />
  <text x="1260.0" y="391.0" fill="#D93829" font-size="10px" font-weight="400">2 Semanas</text>
</svg>