<svg xmlns="http://www.w3.org/2000/svg" viewBox="-30.0 -30.0 1510.0 525.0" width="1510.0" height="525.0">
  <defs>
    <style>
      @import url("https://fonts.googleapis.com/css2?family=Inter:wght@400;500;600;700&amp;display=swap");
      text { font-family: "Inter", -apple-system, BlinkMacSystemFont, "Segoe UI", Roboto, sans-serif; }
    </style>
    <marker id="arrowhead" markerWidth="10" markerHeight="7" refX="9" refY="3.5" orient="auto">
      <polygon points="0 0, 10 3.5, 0 7" fill="#2563EB" />
    </marker>
    <marker id="arrowhead-hero" markerWidth="10" markerHeight="7" refX="9" refY="3.5" orient="auto">
      <polygon points="0 0, 10 3.5, 0 7" fill="#D93829" />
    </marker>
    <marker id="arrowhead-danger" markerWidth="10" markerHeight="7" refX="9" refY="3.5" orient="auto">
      <polygon points="0 0, 10 3.5, 0 7" fill="#DC2626" />
    </marker>
  </defs>
  <rect x="-30.0" y="-30.0" width="1510.0" height="525.0" fill="#F8FAFC" />
  <rect x="10.0" y="10.0" width="1430.0" height="445.0" rx="0.0" fill="transparent" stroke="#CBD5E1" stroke-width="1.5" />
  <text x="30.0" y="46.0" fill="#64748B" font-size="11px" font-weight="400">SKETION EXPANSION LIBRARY V2 · AGILE &amp; PROYECTOS · INTER VECTORIAL</text>
  <rect x="40.0" y="80.0" width="1360.0" height="70.0" rx="6.0" fill="#FFF5F2" stroke="#D93829" stroke-width="1.8" />
  <text x="60.0" y="117.0" fill="#D93829" font-size="12px" font-weight="400">PROGRAM INCREMENT (PI-Q3): Sistema de Plantillas y Auditoria Continua</text>
  <rect x="40.0" y="170.0" width="330.0" height="250.0" rx="6.0" fill="#FFFFFF" stroke="#0C0C0C" stroke-width="1.5" />
  <rect x="52.0" y="180.0" width="73.6" height="20.0" rx="6.0" fill="#F1F5F9" stroke="#CBD5E1" stroke-width="1.0" />
  <text x="56.0" y="192.0" fill="#475569" font-size="10px" font-weight="400">SPRINT 1</text>
  <text x="54.0" y="223.0" fill="#0F172A" font-size="15px" font-weight="600">Sprint 1: Core 62</text>
  <text x="54.0" y="244.2" fill="#475569" font-size="12px" font-weight="400">Objetivos de iteracion #1
Entregables cerrados
Demo &amp; Retrospectiva</text>
  <rect x="385.0" y="170.0" width="330.0" height="250.0" rx="6.0" fill="#FFF5F2" stroke="#D93829" stroke-width="2.0" />
  <rect x="397.0" y="180.0" width="73.6" height="20.0" rx="6.0" fill="#FEE2E2" stroke="#FCA5A5" stroke-width="1.0" />
  <text x="401.0" y="192.0" fill="#D93829" font-size="10px" font-weight="400">SPRINT 2</text>
  <text x="399.0" y="223.0" fill="#0F172A" font-size="15px" font-weight="600">Sprint 2: Expansion v2</text>
  <text x="399.0" y="244.2" fill="#475569" font-size="12px" font-weight="400">Objetivos de iteracion #2
Entregables cerrados
Demo &amp; Retrospectiva</text>
  <rect x="730.0" y="170.0" width="330.0" height="250.0" rx="6.0" fill="#FFFFFF" stroke="#0C0C0C" stroke-width="1.5" />
  <rect x="742.0" y="180.0" width="73.6" height="20.0" rx="6.0" fill="#F1F5F9" stroke="#CBD5E1" stroke-width="1.0" />
  <text x="746.0" y="192.0" fill="#475569" font-size="10px" font-weight="400">SPRINT 3</text>
  <text x="744.0" y="223.0" fill="#0F172A" font-size="15px" font-weight="600">Sprint 3: Quality Audit</text>
  <text x="744.0" y="244.2" fill="#475569" font-size="12px" font-weight="400">Objetivos de iteracion #3
Entregables cerrados
Demo &amp; Retrospectiva</text>
  <rect x="1075.0" y="170.0" width="330.0" height="250.0" rx="6.0" fill="#FFFFFF" stroke="#0C0C0C" stroke-width="1.5" />
  <rect x="1087.0" y="180.0" width="73.6" height="20.0" rx="6.0" fill="#F1F5F9" stroke="#CBD5E1" stroke-width="1.0" />
  <text x="1091.0" y="192.0" fill="#475569" font-size="10px" font-weight="400">SPRINT 4</text>
  <text x="1089.0" y="223.0" fill="#0F172A" font-size="15px" font-weight="600">Sprint 4: Release GA</text>
  <text x="1089.0" y="244.2" fill="#475569" font-size="12px" font-weight="400">Objetivos de iteracion #4
Entregables cerrados
Demo &amp; Retrospectiva</text>
</svg>