<svg xmlns="http://www.w3.org/2000/svg" viewBox="-30.0 -30.0 1507.0 535.0" width="1507.0" height="535.0">
  <defs>
    <style>
      @import url("https://fonts.googleapis.com/css2?family=Inter:wght@400;500;600;700&amp;display=swap");
      text { font-family: "Inter", -apple-system, BlinkMacSystemFont, "Segoe UI", Roboto, sans-serif; }
    </style>
    <marker id="arrowhead" markerWidth="10" markerHeight="7" refX="9" refY="3.5" orient="auto">
      <polygon points="0 0, 10 3.5, 0 7" fill="#2563EB" />
    </marker>
    <marker id="arrowhead-hero" markerWidth="10" markerHeight="7" refX="9" refY="3.5" orient="auto">
      <polygon points="0 0, 10 3.5, 0 7" fill="#D93829" />
    </marker>
    <marker id="arrowhead-danger" markerWidth="10" markerHeight="7" refX="9" refY="3.5" orient="auto">
      <polygon points="0 0, 10 3.5, 0 7" fill="#DC2626" />
    </marker>
  </defs>
  <rect x="-30.0" y="-30.0" width="1507.0" height="535.0" fill="#F8FAFC" />
  <rect x="10.0" y="10.0" width="1427.0" height="455.0" rx="0.0" fill="transparent" stroke="#CBD5E1" stroke-width="1.5" />
  <text x="30.0" y="46.0" fill="#64748B" font-size="11px" font-weight="400">SKETION EXPANSION LIBRARY V2 · AGILE &amp; PROYECTOS · INTER VECTORIAL</text>
  <rect x="40.0" y="80.0" width="1360.0" height="350.0" rx="6.0" fill="#FFFFFF" stroke="#CBD5E1" stroke-width="1.5" />
  <line x1="80.0" y1="130.0" x2="1320.0" y2="130.0" stroke="#0F172A" stroke-width="1.5" />
  <text x="80.0" y="173.0" fill="#64748B" font-size="11px" font-weight="400">Trimestre #1</text>
  <rect x="140.0" y="150.0" width="300.0" height="36.0" rx="6.0" fill="#F8FAFC" stroke="#059669" stroke-width="1.5" />
  <text x="155.0" y="170.0" fill="#059669" font-size="10px" font-weight="400">Q1: Core Engine GA (62 Templates)</text>
  <text x="80.0" y="233.0" fill="#64748B" font-size="11px" font-weight="400">Trimestre #2</text>
  <rect x="480.0" y="210.0" width="350.0" height="36.0" rx="6.0" fill="#FFF5F2" stroke="#D93829" stroke-width="1.5" />
  <text x="495.0" y="230.0" fill="#D93829" font-size="10px" font-weight="400">Q2: Expansion v2 (150 Templates)</text>
  <text x="80.0" y="293.0" fill="#64748B" font-size="11px" font-weight="400">Trimestre #3</text>
  <rect x="860.0" y="270.0" width="240.0" height="36.0" rx="6.0" fill="#F8FAFC" stroke="#0284C7" stroke-width="1.5" />
  <text x="875.0" y="290.0" fill="#0284C7" font-size="10px" font-weight="400">Q3: Ecosistema IDEs &amp; Plugins</text>
  <text x="80.0" y="353.0" fill="#64748B" font-size="11px" font-weight="400">Trimestre #4</text>
  <rect x="1120.0" y="330.0" width="180.0" height="36.0" rx="6.0" fill="#F8FAFC" stroke="#D97706" stroke-width="1.5" />
  <text x="1135.0" y="350.0" fill="#D97706" font-size="10px" font-weight="400">Q4: Generador Autonomo IA v11</text>
</svg>