<svg xmlns="http://www.w3.org/2000/svg" viewBox="-30.0 -30.0 1525.0 555.0" width="1525.0" height="555.0">
  <defs>
    <style>
      @import url("https://fonts.googleapis.com/css2?family=Inter:wght@400;500;600;700&amp;display=swap");
      text { font-family: "Inter", -apple-system, BlinkMacSystemFont, "Segoe UI", Roboto, sans-serif; }
    </style>
    <marker id="arrowhead" markerWidth="10" markerHeight="7" refX="9" refY="3.5" orient="auto">
      <polygon points="0 0, 10 3.5, 0 7" fill="#2563EB" />
    </marker>
    <marker id="arrowhead-hero" markerWidth="10" markerHeight="7" refX="9" refY="3.5" orient="auto">
      <polygon points="0 0, 10 3.5, 0 7" fill="#D93829" />
    </marker>
    <marker id="arrowhead-danger" markerWidth="10" markerHeight="7" refX="9" refY="3.5" orient="auto">
      <polygon points="0 0, 10 3.5, 0 7" fill="#DC2626" />
    </marker>
  </defs>
  <rect x="-30.0" y="-30.0" width="1525.0" height="555.0" fill="#F8FAFC" />
  <rect x="10.0" y="10.0" width="1445.0" height="475.0" rx="0.0" fill="transparent" stroke="#CBD5E1" stroke-width="1.5" />
  <text x="30.0" y="46.0" fill="#64748B" font-size="11px" font-weight="400">SKETION EXPANSION LIBRARY V2 · DISEÑO &amp; UX · INTER VECTORIAL</text>
  <rect x="50.0" y="40.0" width="228.3" height="68.3" rx="6.0" fill="#F1F5F9" stroke="#CBD5E1" stroke-width="1.0" />
  <text x="60.0" y="62.0" fill="#0F172A" font-size="10px" font-weight="400">COMPONENTS</text>
  <rect x="278.3" y="40.0" width="228.3" height="68.3" rx="6.0" fill="#F1F5F9" stroke="#CBD5E1" stroke-width="1.0" />
  <text x="288.3" y="62.0" fill="#0F172A" font-size="10px" font-weight="400">DATA ENGINEER</text>
  <rect x="506.7" y="40.0" width="228.3" height="68.3" rx="6.0" fill="#F1F5F9" stroke="#CBD5E1" stroke-width="1.0" />
  <text x="516.7" y="62.0" fill="#0F172A" font-size="10px" font-weight="400">DATA SCIENTIST</text>
  <rect x="735.0" y="40.0" width="228.3" height="68.3" rx="6.0" fill="#F1F5F9" stroke="#CBD5E1" stroke-width="1.0" />
  <text x="745.0" y="62.0" fill="#0F172A" font-size="10px" font-weight="400">ANALYST</text>
  <rect x="963.3" y="40.0" width="228.3" height="68.3" rx="6.0" fill="#F1F5F9" stroke="#CBD5E1" stroke-width="1.0" />
  <text x="973.3" y="62.0" fill="#0F172A" font-size="10px" font-weight="400">ADMINISTRATOR</text>
  <rect x="1191.7" y="40.0" width="228.3" height="68.3" rx="6.0" fill="#F1F5F9" stroke="#CBD5E1" stroke-width="1.0" />
  <text x="1201.7" y="62.0" fill="#0F172A" font-size="10px" font-weight="400">EXTERNAL PARTNER</text>
  <rect x="50.0" y="108.3" width="228.3" height="68.3" rx="6.0" fill="#FFFFFF" stroke="#CBD5E1" stroke-width="1.0" />
  <text x="60.0" y="131.3" fill="#0F172A" font-size="11px" font-weight="400">Object Storage (S3)</text>
  <rect x="278.3" y="108.3" width="228.3" height="68.3" rx="6.0" fill="#FFFFFF" stroke="#E2E8F0" stroke-width="1.0" />
  <rect x="292.3" y="116.3" width="200.3" height="52.3" rx="6.0" fill="#EFF6FF" stroke="#EFF6FF" stroke-width="1.5" />
  <text x="306.3" y="130.3" fill="#1D4ED8" font-size="10px" font-weight="400">Write</text>
  <rect x="506.7" y="108.3" width="228.3" height="68.3" rx="6.0" fill="#FFFFFF" stroke="#E2E8F0" stroke-width="1.0" />
  <rect x="520.7" y="116.3" width="200.3" height="52.3" rx="6.0" fill="#F0FDF4" stroke="#F0FDF4" stroke-width="1.5" />
  <text x="534.7" y="130.3" fill="#166534" font-size="10px" font-weight="400">Read</text>
  <rect x="735.0" y="108.3" width="228.3" height="68.3" rx="6.0" fill="#FFFFFF" stroke="#E2E8F0" stroke-width="1.0" />
  <rect x="749.0" y="116.3" width="200.3" height="52.3" rx="6.0" fill="#F8FAFC" stroke="#F8FAFC" stroke-width="1.5" />
  <text x="763.0" y="130.3" fill="#94A3B8" font-size="10px" font-weight="400">None</text>
  <rect x="963.3" y="108.3" width="228.3" height="68.3" rx="6.0" fill="#FFFFFF" stroke="#E2E8F0" stroke-width="1.0" />
  <rect x="977.3" y="116.3" width="200.3" height="52.3" rx="6.0" fill="#FEE2E2" stroke="#FEE2E2" stroke-width="1.5" />
  <text x="991.3" y="130.3" fill="#991B1B" font-size="10px" font-weight="400">Admin</text>
  <rect x="1191.7" y="108.3" width="228.3" height="68.3" rx="6.0" fill="#FFFFFF" stroke="#E2E8F0" stroke-width="1.0" />
  <rect x="1205.7" y="116.3" width="200.3" height="52.3" rx="6.0" fill="#F8FAFC" stroke="#F8FAFC" stroke-width="1.5" />
  <text x="1219.7" y="130.3" fill="#94A3B8" font-size="10px" font-weight="400">None</text>
  <rect x="50.0" y="176.7" width="228.3" height="68.3" rx="6.0" fill="#FFFFFF" stroke="#CBD5E1" stroke-width="1.0" />
  <text x="60.0" y="199.7" fill="#0F172A" font-size="11px" font-weight="400">Query Engine (Trino)</text>
  <rect x="278.3" y="176.7" width="228.3" height="68.3" rx="6.0" fill="#FFFFFF" stroke="#E2E8F0" stroke-width="1.0" />
  <rect x="292.3" y="184.7" width="200.3" height="52.3" rx="6.0" fill="#EFF6FF" stroke="#EFF6FF" stroke-width="1.5" />
  <text x="306.3" y="198.7" fill="#1D4ED8" font-size="10px" font-weight="400">Write</text>
  <rect x="506.7" y="176.7" width="228.3" height="68.3" rx="6.0" fill="#FFFFFF" stroke="#E2E8F0" stroke-width="1.0" />
  <rect x="520.7" y="184.7" width="200.3" height="52.3" rx="6.0" fill="#EFF6FF" stroke="#EFF6FF" stroke-width="1.5" />
  <text x="534.7" y="198.7" fill="#1D4ED8" font-size="10px" font-weight="400">Write</text>
  <rect x="735.0" y="176.7" width="228.3" height="68.3" rx="6.0" fill="#FFFFFF" stroke="#E2E8F0" stroke-width="1.0" />
  <rect x="749.0" y="184.7" width="200.3" height="52.3" rx="6.0" fill="#F0FDF4" stroke="#F0FDF4" stroke-width="1.5" />
  <text x="763.0" y="198.7" fill="#166534" font-size="10px" font-weight="400">Read</text>
  <rect x="963.3" y="176.7" width="228.3" height="68.3" rx="6.0" fill="#FFFFFF" stroke="#E2E8F0" stroke-width="1.0" />
  <rect x="977.3" y="184.7" width="200.3" height="52.3" rx="6.0" fill="#FEE2E2" stroke="#FEE2E2" stroke-width="1.5" />
  <text x="991.3" y="198.7" fill="#991B1B" font-size="10px" font-weight="400">Admin</text>
  <rect x="1191.7" y="176.7" width="228.3" height="68.3" rx="6.0" fill="#FFFFFF" stroke="#E2E8F0" stroke-width="1.0" />
  <rect x="1205.7" y="184.7" width="200.3" height="52.3" rx="6.0" fill="#F0FDF4" stroke="#F0FDF4" stroke-width="1.5" />
  <text x="1219.7" y="198.7" fill="#166534" font-size="10px" font-weight="400">Read</text>
  <rect x="50.0" y="245.0" width="228.3" height="68.3" rx="6.0" fill="#FFFFFF" stroke="#CBD5E1" stroke-width="1.0" />
  <text x="60.0" y="268.0" fill="#0F172A" font-size="11px" font-weight="400">Notebooks (Jupyter)</text>
  <rect x="278.3" y="245.0" width="228.3" height="68.3" rx="6.0" fill="#FFFFFF" stroke="#E2E8F0" stroke-width="1.0" />
  <rect x="292.3" y="253.0" width="200.3" height="52.3" rx="6.0" fill="#F0FDF4" stroke="#F0FDF4" stroke-width="1.5" />
  <text x="306.3" y="267.0" fill="#166534" font-size="10px" font-weight="400">Read</text>
  <rect x="506.7" y="245.0" width="228.3" height="68.3" rx="6.0" fill="#FFFFFF" stroke="#E2E8F0" stroke-width="1.0" />
  <rect x="520.7" y="253.0" width="200.3" height="52.3" rx="6.0" fill="#EFF6FF" stroke="#EFF6FF" stroke-width="1.5" />
  <text x="534.7" y="267.0" fill="#1D4ED8" font-size="10px" font-weight="400">Write</text>
  <rect x="735.0" y="245.0" width="228.3" height="68.3" rx="6.0" fill="#FFFFFF" stroke="#E2E8F0" stroke-width="1.0" />
  <rect x="749.0" y="253.0" width="200.3" height="52.3" rx="6.0" fill="#F8FAFC" stroke="#F8FAFC" stroke-width="1.5" />
  <text x="763.0" y="267.0" fill="#94A3B8" font-size="10px" font-weight="400">None</text>
  <rect x="963.3" y="245.0" width="228.3" height="68.3" rx="6.0" fill="#FFFFFF" stroke="#E2E8F0" stroke-width="1.0" />
  <rect x="977.3" y="253.0" width="200.3" height="52.3" rx="6.0" fill="#FEE2E2" stroke="#FEE2E2" stroke-width="1.5" />
  <text x="991.3" y="267.0" fill="#991B1B" font-size="10px" font-weight="400">Admin</text>
  <rect x="1191.7" y="245.0" width="228.3" height="68.3" rx="6.0" fill="#FFFFFF" stroke="#E2E8F0" stroke-width="1.0" />
  <rect x="1205.7" y="253.0" width="200.3" height="52.3" rx="6.0" fill="#F8FAFC" stroke="#F8FAFC" stroke-width="1.5" />
  <text x="1219.7" y="267.0" fill="#94A3B8" font-size="10px" font-weight="400">None</text>
  <rect x="50.0" y="313.3" width="228.3" height="68.3" rx="6.0" fill="#FFFFFF" stroke="#CBD5E1" stroke-width="1.0" />
  <text x="60.0" y="336.3" fill="#0F172A" font-size="11px" font-weight="400">BI Tool (Superset)</text>
  <rect x="278.3" y="313.3" width="228.3" height="68.3" rx="6.0" fill="#FFFFFF" stroke="#E2E8F0" stroke-width="1.0" />
  <rect x="292.3" y="321.3" width="200.3" height="52.3" rx="6.0" fill="#F0FDF4" stroke="#F0FDF4" stroke-width="1.5" />
  <text x="306.3" y="335.3" fill="#166534" font-size="10px" font-weight="400">Read</text>
  <rect x="506.7" y="313.3" width="228.3" height="68.3" rx="6.0" fill="#FFFFFF" stroke="#E2E8F0" stroke-width="1.0" />
  <rect x="520.7" y="321.3" width="200.3" height="52.3" rx="6.0" fill="#EFF6FF" stroke="#EFF6FF" stroke-width="1.5" />
  <text x="534.7" y="335.3" fill="#1D4ED8" font-size="10px" font-weight="400">Write</text>
  <rect x="735.0" y="313.3" width="228.3" height="68.3" rx="6.0" fill="#FFFFFF" stroke="#E2E8F0" stroke-width="1.0" />
  <rect x="749.0" y="321.3" width="200.3" height="52.3" rx="6.0" fill="#EFF6FF" stroke="#EFF6FF" stroke-width="1.5" />
  <text x="763.0" y="335.3" fill="#1D4ED8" font-size="10px" font-weight="400">Write</text>
  <rect x="963.3" y="313.3" width="228.3" height="68.3" rx="6.0" fill="#FFFFFF" stroke="#E2E8F0" stroke-width="1.0" />
  <rect x="977.3" y="321.3" width="200.3" height="52.3" rx="6.0" fill="#FEE2E2" stroke="#FEE2E2" stroke-width="1.5" />
  <text x="991.3" y="335.3" fill="#991B1B" font-size="10px" font-weight="400">Admin</text>
  <rect x="1191.7" y="313.3" width="228.3" height="68.3" rx="6.0" fill="#FFFFFF" stroke="#E2E8F0" stroke-width="1.0" />
  <rect x="1205.7" y="321.3" width="200.3" height="52.3" rx="6.0" fill="#F0FDF4" stroke="#F0FDF4" stroke-width="1.5" />
  <text x="1219.7" y="335.3" fill="#166534" font-size="10px" font-weight="400">Read</text>
  <rect x="50.0" y="381.7" width="228.3" height="68.3" rx="6.0" fill="#FFFFFF" stroke="#CBD5E1" stroke-width="1.0" />
  <text x="60.0" y="404.7" fill="#0F172A" font-size="11px" font-weight="400">Orchestrator (Airflow)</text>
  <rect x="278.3" y="381.7" width="228.3" height="68.3" rx="6.0" fill="#FFFFFF" stroke="#E2E8F0" stroke-width="1.0" />
  <rect x="292.3" y="389.7" width="200.3" height="52.3" rx="6.0" fill="#FEE2E2" stroke="#FEE2E2" stroke-width="1.5" />
  <text x="306.3" y="403.7" fill="#991B1B" font-size="10px" font-weight="400">Admin</text>
  <rect x="506.7" y="381.7" width="228.3" height="68.3" rx="6.0" fill="#FFFFFF" stroke="#E2E8F0" stroke-width="1.0" />
  <rect x="520.7" y="389.7" width="200.3" height="52.3" rx="6.0" fill="#F8FAFC" stroke="#F8FAFC" stroke-width="1.5" />
  <text x="534.7" y="403.7" fill="#94A3B8" font-size="10px" font-weight="400">None</text>
  <rect x="735.0" y="381.7" width="228.3" height="68.3" rx="6.0" fill="#FFFFFF" stroke="#E2E8F0" stroke-width="1.0" />
  <rect x="749.0" y="389.7" width="200.3" height="52.3" rx="6.0" fill="#F8FAFC" stroke="#F8FAFC" stroke-width="1.5" />
  <text x="763.0" y="403.7" fill="#94A3B8" font-size="10px" font-weight="400">None</text>
  <rect x="963.3" y="381.7" width="228.3" height="68.3" rx="6.0" fill="#FFFFFF" stroke="#E2E8F0" stroke-width="1.0" />
  <rect x="977.3" y="389.7" width="200.3" height="52.3" rx="6.0" fill="#FEE2E2" stroke="#FEE2E2" stroke-width="1.5" />
  <text x="991.3" y="403.7" fill="#991B1B" font-size="10px" font-weight="400">Admin</text>
  <rect x="1191.7" y="381.7" width="228.3" height="68.3" rx="6.0" fill="#FFFFFF" stroke="#E2E8F0" stroke-width="1.0" />
  <rect x="1205.7" y="389.7" width="200.3" height="52.3" rx="6.0" fill="#F8FAFC" stroke="#F8FAFC" stroke-width="1.5" />
  <text x="1219.7" y="403.7" fill="#94A3B8" font-size="10px" font-weight="400">None</text>
</svg>