<svg xmlns="http://www.w3.org/2000/svg" viewBox="-30.0 -30.0 1482.4 525.0" width="1482.4" height="525.0">
  <defs>
    <style>
      @import url("https://fonts.googleapis.com/css2?family=Inter:wght@400;500;600;700&amp;display=swap");
      text { font-family: "Inter", -apple-system, BlinkMacSystemFont, "Segoe UI", Roboto, sans-serif; }
    </style>
    <marker id="arrowhead" markerWidth="10" markerHeight="7" refX="9" refY="3.5" orient="auto">
      <polygon points="0 0, 10 3.5, 0 7" fill="#2563EB" />
    </marker>
    <marker id="arrowhead-hero" markerWidth="10" markerHeight="7" refX="9" refY="3.5" orient="auto">
      <polygon points="0 0, 10 3.5, 0 7" fill="#D93829" />
    </marker>
    <marker id="arrowhead-danger" markerWidth="10" markerHeight="7" refX="9" refY="3.5" orient="auto">
      <polygon points="0 0, 10 3.5, 0 7" fill="#DC2626" />
    </marker>
  </defs>
  <rect x="-30.0" y="-30.0" width="1482.4" height="525.0" fill="#F8FAFC" />
  <rect x="10.0" y="10.0" width="1402.4" height="445.0" rx="0.0" fill="transparent" stroke="#CBD5E1" stroke-width="1.5" />
  <text x="30.0" y="46.0" fill="#64748B" font-size="11px" font-weight="400">SKETION EXPANSION LIBRARY V2 · NEGOCIOS · INTER VECTORIAL</text>
  <rect x="600.0" y="70.0" width="260.0" height="90.0" rx="6.0" fill="#FFFFFF" stroke="#0C0C0C" stroke-width="1.5" />
  <rect x="612.0" y="80.0" width="66.4" height="20.0" rx="6.0" fill="#F1F5F9" stroke="#CBD5E1" stroke-width="1.0" />
  <text x="616.0" y="92.0" fill="#475569" font-size="10px" font-weight="400">AMENAZA</text>
  <text x="614.0" y="122.0" fill="#0F172A" font-size="14px" font-weight="600">NUEVOS ENTRANTES</text>
  <text x="614.0" y="142.9" fill="#475569" font-size="12px" font-weight="400">Barreras de entrada tecnicas</text>
  <rect x="150.0" y="200.0" width="260.0" height="90.0" rx="6.0" fill="#FFFFFF" stroke="#0C0C0C" stroke-width="1.5" />
  <rect x="162.0" y="210.0" width="52.0" height="20.0" rx="6.0" fill="#F1F5F9" stroke="#CBD5E1" stroke-width="1.0" />
  <text x="166.0" y="222.0" fill="#475569" font-size="10px" font-weight="400">PODER</text>
  <text x="164.0" y="252.0" fill="#0F172A" font-size="14px" font-weight="600">PROVEEDORES</text>
  <text x="164.0" y="272.9" fill="#475569" font-size="12px" font-weight="400">Poder de monopolio cloud</text>
  <rect x="600.0" y="200.0" width="260.0" height="90.0" rx="6.0" fill="#FFF5F2" stroke="#D93829" stroke-width="2.0" />
  <rect x="612.0" y="210.0" width="66.4" height="20.0" rx="6.0" fill="#FEE2E2" stroke="#FCA5A5" stroke-width="1.0" />
  <text x="616.0" y="222.0" fill="#D93829" font-size="10px" font-weight="400">CENTRAL</text>
  <text x="614.0" y="252.0" fill="#0F172A" font-size="14px" font-weight="600">RIVALIDAD INDUSTRIA</text>
  <text x="614.0" y="272.9" fill="#475569" font-size="12px" font-weight="400">Competencia Directa de Motores</text>
  <rect x="1050.0" y="200.0" width="260.0" height="90.0" rx="6.0" fill="#FFFFFF" stroke="#0C0C0C" stroke-width="1.5" />
  <rect x="1062.0" y="210.0" width="52.0" height="20.0" rx="6.0" fill="#F1F5F9" stroke="#CBD5E1" stroke-width="1.0" />
  <text x="1066.0" y="222.0" fill="#475569" font-size="10px" font-weight="400">PODER</text>
  <text x="1064.0" y="252.0" fill="#0F172A" font-size="14px" font-weight="600">COMPRADORES</text>
  <text x="1064.0" y="272.9" fill="#475569" font-size="12px" font-weight="400">Sensibilidad al precio / SaaS</text>
  <rect x="600.0" y="330.0" width="260.0" height="90.0" rx="6.0" fill="#FFFFFF" stroke="#0C0C0C" stroke-width="1.5" />
  <rect x="612.0" y="340.0" width="66.4" height="20.0" rx="6.0" fill="#F1F5F9" stroke="#CBD5E1" stroke-width="1.0" />
  <text x="616.0" y="352.0" fill="#475569" font-size="10px" font-weight="400">AMENAZA</text>
  <text x="614.0" y="382.0" fill="#0F172A" font-size="14px" font-weight="600">SUBSTITUTOS</text>
  <text x="614.0" y="402.9" fill="#475569" font-size="12px" font-weight="400">Herramientas no-code web</text>
  <line x1="730.0" y1="160.0" x2="730.0" y2="200.0" stroke="#D93829" stroke-width="1.5" marker-end="url(#arrowhead-hero)" />
  <line x1="410.0" y1="245.0" x2="600.0" y2="245.0" stroke="#D93829" stroke-width="1.5" marker-end="url(#arrowhead-hero)" />
  <line x1="1050.0" y1="245.0" x2="860.0" y2="245.0" stroke="#D93829" stroke-width="1.5" marker-end="url(#arrowhead-hero)" />
  <line x1="730.0" y1="330.0" x2="730.0" y2="290.0" stroke="#D93829" stroke-width="1.5" marker-end="url(#arrowhead-hero)" />
</svg>