<svg xmlns="http://www.w3.org/2000/svg" viewBox="-30.0 -30.0 1385.0 475.0" width="1385.0" height="475.0">
  <defs>
    <style>
      @import url("https://fonts.googleapis.com/css2?family=Inter:wght@400;500;600;700&amp;display=swap");
      text { font-family: "Inter", -apple-system, BlinkMacSystemFont, "Segoe UI", Roboto, sans-serif; }
    </style>
    <marker id="arrowhead" markerWidth="10" markerHeight="7" refX="9" refY="3.5" orient="auto">
      <polygon points="0 0, 10 3.5, 0 7" fill="#2563EB" />
    </marker>
    <marker id="arrowhead-hero" markerWidth="10" markerHeight="7" refX="9" refY="3.5" orient="auto">
      <polygon points="0 0, 10 3.5, 0 7" fill="#D93829" />
    </marker>
    <marker id="arrowhead-danger" markerWidth="10" markerHeight="7" refX="9" refY="3.5" orient="auto">
      <polygon points="0 0, 10 3.5, 0 7" fill="#DC2626" />
    </marker>
  </defs>
  <rect x="-30.0" y="-30.0" width="1385.0" height="475.0" fill="#F8FAFC" />
  <rect x="10.0" y="10.0" width="1305.0" height="395.0" rx="0.0" fill="transparent" stroke="#CBD5E1" stroke-width="1.5" />
  <text x="30.0" y="46.0" fill="#64748B" font-size="11px" font-weight="400">SKETION EXPANSION LIBRARY V2 · SOFTWARE · INTER VECTORIAL</text>
  <rect x="40.0" y="90.0" width="320.0" height="280.0" rx="6.0" fill="#FFFFFF" stroke="#0F172A" stroke-width="1.5" />
  <rect x="40.0" y="90.0" width="320.0" height="38.0" rx="6.0" fill="#F1F5F9" stroke="#0F172A" stroke-width="1.0" />
  <text x="50.0" y="103.0" fill="#64748B" font-size="9px" font-weight="400">&lt;&lt;entity&gt;&gt;</text>
  <text x="50.0" y="120.0" fill="#0F172A" font-size="12px" font-weight="400">UserAccount</text>
  <text x="52.0" y="146.0" fill="#334155" font-size="10px" font-weight="400">+ id: UUID</text>
  <text x="52.0" y="164.0" fill="#334155" font-size="10px" font-weight="400">+ email: String</text>
  <text x="52.0" y="182.0" fill="#334155" font-size="10px" font-weight="400">+ hashedPassword: str</text>
  <text x="52.0" y="200.0" fill="#334155" font-size="10px" font-weight="400">+ isActive: bool</text>
  <line x1="40.0" y1="212.0" x2="360.0" y2="212.0" stroke="#CBD5E1" stroke-width="1.0" />
  <text x="52.0" y="230.0" fill="#0F172A" font-size="10px" font-weight="400">+ validatePassword(pwd)()</text>
  <text x="52.0" y="248.0" fill="#0F172A" font-size="10px" font-weight="400">+ changeEmail(newEmail)()</text>
  <text x="52.0" y="266.0" fill="#0F172A" font-size="10px" font-weight="400">+ deactivate()()</text>
  <line x1="360.0" y1="210.0" x2="480.0" y2="210.0" stroke="#0F172A" stroke-width="1.5" marker-end="url(#arrowhead)" />
  <rect x="480.0" y="90.0" width="340.0" height="280.0" rx="6.0" fill="#FFF5F2" stroke="#D93829" stroke-width="1.8" />
  <rect x="480.0" y="90.0" width="340.0" height="38.0" rx="6.0" fill="#FFE4E1" stroke="#D93829" stroke-width="1.0" />
  <text x="490.0" y="103.0" fill="#64748B" font-size="9px" font-weight="400">&lt;&lt;aggregate_root&gt;&gt;</text>
  <text x="490.0" y="120.0" fill="#0F172A" font-size="12px" font-weight="400">Order</text>
  <text x="492.0" y="146.0" fill="#334155" font-size="10px" font-weight="400">+ orderId: UUID</text>
  <text x="492.0" y="164.0" fill="#334155" font-size="10px" font-weight="400">+ totalAmount: Decimal</text>
  <text x="492.0" y="182.0" fill="#334155" font-size="10px" font-weight="400">+ status: OrderStatus</text>
  <text x="492.0" y="200.0" fill="#334155" font-size="10px" font-weight="400">+ items: List[OrderItem]</text>
  <line x1="480.0" y1="212.0" x2="820.0" y2="212.0" stroke="#CBD5E1" stroke-width="1.0" />
  <text x="492.0" y="230.0" fill="#0F172A" font-size="10px" font-weight="400">+ addItem(sku, qty)()</text>
  <text x="492.0" y="248.0" fill="#0F172A" font-size="10px" font-weight="400">+ calculateTotal()()</text>
  <text x="492.0" y="266.0" fill="#0F172A" font-size="10px" font-weight="400">+ markAsPaid()()</text>
  <line x1="820.0" y1="210.0" x2="940.0" y2="210.0" stroke="#0F172A" stroke-width="1.5" marker-end="url(#arrowhead)" />
  <rect x="940.0" y="90.0" width="340.0" height="280.0" rx="6.0" fill="#FFFFFF" stroke="#0F172A" stroke-width="1.5" />
  <rect x="940.0" y="90.0" width="340.0" height="38.0" rx="6.0" fill="#F1F5F9" stroke="#0F172A" stroke-width="1.0" />
  <text x="950.0" y="103.0" fill="#64748B" font-size="9px" font-weight="400">&lt;&lt;entity&gt;&gt;</text>
  <text x="950.0" y="120.0" fill="#0F172A" font-size="12px" font-weight="400">PaymentTransaction</text>
  <text x="952.0" y="146.0" fill="#334155" font-size="10px" font-weight="400">+ txId: UUID</text>
  <text x="952.0" y="164.0" fill="#334155" font-size="10px" font-weight="400">+ gatewayRef: str</text>
  <text x="952.0" y="182.0" fill="#334155" font-size="10px" font-weight="400">+ amount: Decimal</text>
  <text x="952.0" y="200.0" fill="#334155" font-size="10px" font-weight="400">+ processedAt: DateTime</text>
  <line x1="940.0" y1="212.0" x2="1280.0" y2="212.0" stroke="#CBD5E1" stroke-width="1.0" />
  <text x="952.0" y="230.0" fill="#0F172A" font-size="10px" font-weight="400">+ authorize()()</text>
  <text x="952.0" y="248.0" fill="#0F172A" font-size="10px" font-weight="400">+ capture()()</text>
  <text x="952.0" y="266.0" fill="#0F172A" font-size="10px" font-weight="400">+ refund(reason)()</text>
</svg>