<svg xmlns="http://www.w3.org/2000/svg" viewBox="-30.0 -30.0 1505.0 535.0" width="1505.0" height="535.0">
  <defs>
    <style>
      @import url("https://fonts.googleapis.com/css2?family=Inter:wght@400;500;600;700&amp;display=swap");
      text { font-family: "Inter", -apple-system, BlinkMacSystemFont, "Segoe UI", Roboto, sans-serif; }
    </style>
    <marker id="arrowhead" markerWidth="10" markerHeight="7" refX="9" refY="3.5" orient="auto">
      <polygon points="0 0, 10 3.5, 0 7" fill="#2563EB" />
    </marker>
    <marker id="arrowhead-hero" markerWidth="10" markerHeight="7" refX="9" refY="3.5" orient="auto">
      <polygon points="0 0, 10 3.5, 0 7" fill="#D93829" />
    </marker>
    <marker id="arrowhead-danger" markerWidth="10" markerHeight="7" refX="9" refY="3.5" orient="auto">
      <polygon points="0 0, 10 3.5, 0 7" fill="#DC2626" />
    </marker>
  </defs>
  <rect x="-30.0" y="-30.0" width="1505.0" height="535.0" fill="#F8FAFC" />
  <rect x="10.0" y="10.0" width="1425.0" height="455.0" rx="0.0" fill="transparent" stroke="#CBD5E1" stroke-width="1.5" />
  <text x="30.0" y="46.0" fill="#64748B" font-size="11px" font-weight="400">SKETION EXPANSION LIBRARY V2 · INGENIERÍA · INTER VECTORIAL</text>
  <rect x="40.0" y="80.0" width="1360.0" height="350.0" rx="6.0" fill="#FFFFFF" stroke="#CBD5E1" stroke-width="1.5" />
  <line x1="80.0" y1="360.0" x2="1340.0" y2="360.0" stroke="#0F172A" stroke-width="1.5" />
  <line x1="80.0" y1="120.0" x2="80.0" y2="360.0" stroke="#0F172A" stroke-width="1.5" />
  <line x1="80.0" y1="200.0" x2="1340.0" y2="200.0" stroke="#D93829" stroke-width="1.5" stroke-dasharray="6,6" />
  <text x="1200.0" y="191.0" fill="#D93829" font-size="11px" font-weight="400">LCS = 65s</text>
  <rect x="140.0" y="225.0" width="80.0" height="135.0" rx="6.0" fill="#EFF6FF" stroke="#3B82F6" stroke-width="1.5" />
  <text x="155.0" y="215.0" fill="#1D4ED8" font-size="10px" font-weight="400">45s</text>
  <text x="155.0" y="385.0" fill="#64748B" font-size="10px" font-weight="400">Op 10</text>
  <rect x="340.0" y="204.0" width="80.0" height="156.0" rx="6.0" fill="#EFF6FF" stroke="#3B82F6" stroke-width="1.5" />
  <text x="355.0" y="194.0" fill="#1D4ED8" font-size="10px" font-weight="400">52s</text>
  <text x="355.0" y="385.0" fill="#64748B" font-size="10px" font-weight="400">Op 20</text>
  <rect x="540.0" y="156.0" width="80.0" height="204.0" rx="6.0" fill="#FFF5F2" stroke="#D93829" stroke-width="1.5" />
  <text x="555.0" y="146.0" fill="#D93829" font-size="10px" font-weight="400">68s</text>
  <text x="555.0" y="385.0" fill="#64748B" font-size="10px" font-weight="400">Op 30</text>
  <rect x="740.0" y="237.0" width="80.0" height="123.0" rx="6.0" fill="#EFF6FF" stroke="#3B82F6" stroke-width="1.5" />
  <text x="755.0" y="227.0" fill="#1D4ED8" font-size="10px" font-weight="400">41s</text>
  <text x="755.0" y="385.0" fill="#64748B" font-size="10px" font-weight="400">Op 40</text>
  <rect x="940.0" y="186.0" width="80.0" height="174.0" rx="6.0" fill="#EFF6FF" stroke="#3B82F6" stroke-width="1.5" />
  <text x="955.0" y="176.0" fill="#1D4ED8" font-size="10px" font-weight="400">58s</text>
  <text x="955.0" y="385.0" fill="#64748B" font-size="10px" font-weight="400">Op 50</text>
  <rect x="1140.0" y="213.0" width="80.0" height="147.0" rx="6.0" fill="#EFF6FF" stroke="#3B82F6" stroke-width="1.5" />
  <text x="1155.0" y="203.0" fill="#1D4ED8" font-size="10px" font-weight="400">49s</text>
  <text x="1155.0" y="385.0" fill="#64748B" font-size="10px" font-weight="400">Op 60</text>
</svg>